#!OML:ASF X:\für Bonn\!DataBase\2005_08_12_Daniel\c3d\Daniel.ASF
:FULLY-SPECIFIED
:DEGREES
109
root 2.6074 17.6462 17.5526 -4.59346 17.1287 0.508393
lowerback 4.77582 3.4749 2.82021
upperback 0.996208 4.71969 -7.09202
thorax -0.803739 2.41027 -9.28747
lowerneck 1.33108 -6.92343 -3.99769
upperneck 12.5627 -9.65547 4.32882
head 4.38832 -4.77059 1.80563
rclavicle 3.92351e-014 4.77083e-015
rhumerus 44.565 -6.52187 -48.1657
rradius 30.8902
rwrist 4.91398
rhand -11.9649 11.6889
rfingers 7.12502
rthumb 14.0908 -17.8134
lclavicle 3.92351e-014 4.77083e-015
lhumerus -32.3717 34.9726 65.842
lradius 16.0721
lwrist -40.1199
lhand -6.99528 -7.05267
lfingers 7.12502
lthumb 18.8754 22.0515
rfemur 11.0313 14.7867 21.9514
rtibia 12.8654
rfoot -28.0995 -28.1553
rtoes -9.71888
lfemur -0.354299 -18.0597 -19.4109
ltibia 26.7555
lfoot -21.1189 6.15825
ltoes -14.4527
110
root 2.60282 17.6469 17.5565 -4.56334 17.2613 0.524123
lowerback 4.83634 3.54649 2.86248
upperback 0.958958 4.81652 -7.14662
thorax -0.850288 2.45756 -9.38182
lowerneck 1.36523 -7.00342 -4.05682
upperneck 12.5639 -9.77007 4.39568
head 4.39712 -4.82763 1.83453
rclavicle -3.72473e-014 0
rhumerus 45.1036 -6.69655 -47.9617
rradius 29.3434
rwrist 5.71991
rhand -11.3851 11.5021
rfingers 7.12502
rthumb 14.6495 -17.9604
lclavicle -3.72473e-014 0
lhumerus -32.3548 34.9561 65.7763
lradius 16.0631
lwrist -40.1363
lhand -7.11504 -7.05847
lfingers 7.12502
lthumb 18.7602 22.0569
rfemur 11.0215 14.7452 21.9625
rtibia 12.8857
rfoot -28.1859 -28.2231
rtoes -9.69118
lfemur -0.403155 -18.1802 -19.4107
ltibia 26.7698
lfoot -21.1172 6.14127
ltoes -14.4501
111
root 2.59832 17.6462 17.5591 -4.57252 17.3919 0.522115
lowerback 4.9142 3.6093 2.93161
upperback 0.962093 4.90489 -7.20844
thorax -0.86264 2.50317 -9.49926
lowerneck 1.31166 -7.07589 -4.06103
upperneck 12.5743 -9.87585 4.47568
head 4.42311 -4.87597 1.85543
rclavicle -4.73604e-014 2.38542e-014
rhumerus 45.6782 -7.02857 -48.037
rradius 27.8291
rwrist 6.71559
rhand -10.778 11.3652
rfingers 7.12502
rthumb 15.2344 -18.0539
lclavicle -4.73604e-014 2.38542e-014
lhumerus -32.2575 34.8821 65.7731
lradius 16.0518
lwrist -40.0635
lhand -7.29446 -7.06612
lfingers 7.12502
lthumb 18.5876 22.0658
rfemur 11.0531 14.6961 21.9993
rtibia 12.8931
rfoot -28.2514 -28.2895
rtoes -9.60906
lfemur -0.431505 -18.2063 -19.3864
ltibia 26.7877
lfoot -21.0963 6.06396
ltoes -14.5563
112
root 2.5936 17.6461 17.5623 -4.55858 17.5362 0.536288
lowerback 5.00485 3.68039 2.99832
upperback 0.925502 5.00246 -7.28942
thorax -0.919827 2.55084 -9.6401
lowerneck 1.35821 -7.15494 -4.0892
upperneck 12.5669 -9.99336 4.57235
head 4.42693 -4.93215 1.88947
rclavicle -2.127e-014 -9.54166e-015
rhumerus 46.0864 -7.43636 -48.235
rradius 26.4923
rwrist 7.77315
rhand -10.1197 11.3014
rfingers 7.12502
rthumb 15.8684 -18.0684
lclavicle -2.127e-014 -9.54166e-015
lhumerus -32.177 34.7094 65.7367
lradius 16.0385
lwrist -39.9694
lhand -7.47566 -7.06536
lfingers 7.12502
lthumb 18.4133 22.0832
rfemur 11.0694 14.6734 22.0285
rtibia 12.8967
rfoot -28.3103 -28.4083
rtoes -9.61801
lfemur -0.471599 -18.2866 -19.3844
ltibia 26.8064
lfoot -21.0603 6.02591
ltoes -14.5528
113
root 2.58906 17.646 17.5649 -4.55688 17.677 0.537232
lowerback 5.07637 3.73403 3.04353
upperback 0.925115 5.07718 -7.3232
thorax -0.938845 2.58875 -9.71238
lowerneck 1.31315 -7.2307 -4.18915
upperneck 12.579 -10.1005 4.64163
head 4.45815 -4.98605 1.92347
rclavicle 2.52457e-014 3.65764e-014
rhumerus 46.6541 -7.96087 -48.6796
rradius 25.1369
rwrist 9.03801
rhand -9.49329 11.2484
rfingers 7.12502
rthumb 16.4716 -18.0723
lclavicle 2.52457e-014 3.65764e-014
lhumerus -32.1408 34.942 65.623
lradius 15.9862
lwrist -40.161
lhand -7.60741 -7.09583
lfingers 7.12502
lthumb 18.2866 22.0646
rfemur 11.0817 14.5776 22.0449
rtibia 12.9109
rfoot -28.3477 -28.4442
rtoes -9.75595
lfemur -0.50253 -18.3776 -19.3672
ltibia 26.821
lfoot -21.0534 5.96905
ltoes -14.554
114
root 2.5836 17.6451 17.5677 -4.57105 17.7899 0.537102
lowerback 5.17949 3.80547 3.10457
upperback 0.911664 5.17605 -7.37664
thorax -0.980934 2.63793 -9.8201
lowerneck 1.32447 -7.30265 -4.21149
upperneck 12.5587 -10.2009 4.68241
head 4.45891 -5.03534 1.93705
rclavicle -1.45113e-014 1.74931e-014
rhumerus 47.2149 -8.66317 -49.4325
rradius 23.7897
rwrist 10.5058
rhand -8.89268 11.26
rfingers 7.12502
rthumb 17.0497 -18.0118
lclavicle -1.45113e-014 1.74931e-014
lhumerus -32.0535 34.938 65.5788
lradius 15.9474
lwrist -40.1273
lhand -7.78289 -7.12271
lfingers 7.12502
lthumb 18.1177 22.0535
rfemur 11.1115 14.5642 22.0932
rtibia 12.9349
rfoot -28.4199 -28.5286
rtoes -9.61532
lfemur -0.522509 -18.3817 -19.3407
ltibia 26.8316
lfoot -21.029 5.88736
ltoes -14.6647
115
root 2.57802 17.645 17.5709 -4.57155 17.9227 0.536501
lowerback 5.28025 3.87472 3.15379
upperback 0.881729 5.27064 -7.43982
thorax -1.03947 2.68387 -9.93258
lowerneck 1.36944 -7.38335 -4.17996
upperneck 12.5307 -10.3154 4.72777
head 4.44772 -5.08952 1.94357
rclavicle -2.25124e-014 -2.22639e-014
rhumerus 47.7443 -9.43197 -50.2916
rradius 22.499
rwrist 12.0009
rhand -8.29158 11.3804
rfingers 7.12502
rthumb 17.6283 -17.8405
lclavicle -2.25124e-014 -2.22639e-014
lhumerus -31.9867 34.9523 65.4785
lradius 15.9051
lwrist -40.188
lhand -7.88133 -7.11835
lfingers 7.12502
lthumb 18.023 22.0666
rfemur 11.1333 14.5407 22.1398
rtibia 12.9508
rfoot -28.5071 -28.6189
rtoes -9.58471
lfemur -0.547361 -18.4565 -19.3235
ltibia 26.8446
lfoot -21.0168 5.85271
ltoes -14.7551
116
root 2.57377 17.6444 17.5744 -4.55787 18.0538 0.551451
lowerback 5.35375 3.94148 3.19965
upperback 0.867288 5.3627 -7.49033
thorax -1.06829 2.72997 -10.0259
lowerneck 1.3818 -7.4485 -4.26011
upperneck 12.514 -10.4124 4.82877
head 4.45824 -5.13741 1.98785
rclavicle 2.57426e-014 4.45278e-014
rhumerus 48.3387 -10.3244 -51.3489
rradius 21.2662
rwrist 13.7077
rhand -7.73605 11.4803
rfingers 7.12502
rthumb 18.1628 -17.6917
lclavicle 2.57426e-014 4.45278e-014
lhumerus -31.9229 35.1601 65.3458
lradius 15.8068
lwrist -40.3514
lhand -8.00967 -7.23358
lfingers 7.12502
lthumb 17.8995 21.9627
rfemur 11.1295 14.481 22.1468
rtibia 12.9829
rfoot -28.5729 -28.6579
rtoes -9.48915
lfemur -0.581119 -18.5026 -19.3147
ltibia 26.8513
lfoot -21.0026 5.7807
ltoes -14.8068
117
root 2.56821 17.6451 17.5765 -4.56424 18.2103 0.550152
lowerback 5.47304 3.99295 3.23671
upperback 0.835485 5.43252 -7.53461
thorax -1.14641 2.76216 -10.1121
lowerneck 1.44816 -7.51538 -4.26662
upperneck 12.4736 -10.5061 4.86364
head 4.4393 -5.18397 1.99939
rclavicle -1.08586e-013 4.13472e-014
rhumerus 48.9663 -11.3184 -52.6433
rradius 20.0407
rwrist 15.6225
rhand -7.23874 11.6116
rfingers 7.12502
rthumb 18.6412 -17.5152
lclavicle -1.08586e-013 4.13472e-014
lhumerus -31.9225 35.1147 65.2664
lradius 15.823
lwrist -40.3608
lhand -8.18626 -7.25054
lfingers 7.12502
lthumb 17.7296 21.9612
rfemur 11.1488 14.4679 22.203
rtibia 13.0186
rfoot -28.696 -28.7757
rtoes -9.46161
lfemur -0.610707 -18.5808 -19.2945
ltibia 26.856
lfoot -20.9724 5.72703
ltoes -14.9089
118
root 2.56377 17.6449 17.5798 -4.52979 18.3416 0.577747
lowerback 5.51241 4.05738 3.26256
upperback 0.83339 5.52118 -7.59222
thorax -1.14453 2.80822 -10.198
lowerneck 1.45853 -7.58275 -4.28657
upperneck 12.4146 -10.6005 4.91886
head 4.42696 -5.23011 2.01818
rclavicle -6.77856e-014 -7.95139e-015
rhumerus 49.6161 -12.3851 -53.9657
rradius 18.9287
rwrist 17.6418
rhand -6.75889 11.7686
rfingers 7.12502
rthumb 19.1027 -17.3133
lclavicle -6.77856e-014 -7.95139e-015
lhumerus -31.9014 35.3206 65.1216
lradius 15.7949
lwrist -40.577
lhand -8.29743 -7.34055
lfingers 7.12502
lthumb 17.6226 21.8808
rfemur 11.13 14.3694 22.1831
rtibia 13.043
rfoot -28.7506 -28.791
rtoes -9.4478
lfemur -0.667783 -18.6391 -19.2901
ltibia 26.8653
lfoot -20.9602 5.65226
ltoes -14.9122
119
root 2.56027 17.6449 17.5828 -4.51489 18.4865 0.578196
lowerback 5.59182 4.11153 3.30964
upperback 0.803889 5.59571 -7.63344
thorax -1.1959 2.84383 -10.2834
lowerneck 1.50922 -7.64045 -4.32113
upperneck 12.385 -10.682 4.96078
head 4.41699 -5.2713 2.03687
rclavicle -8.74653e-015 7.95139e-015
rhumerus 50.1705 -13.3923 -55.265
rradius 17.9774
rwrist 19.5082
rhand -6.22569 11.828
rfingers 7.12502
rthumb 19.6154 -17.2024
lclavicle -8.74653e-015 7.95139e-015
lhumerus -31.9007 35.2278 65.0935
lradius 15.8456
lwrist -40.4284
lhand -8.38635 -7.35051
lfingers 7.12502
lthumb 17.5371 21.8785
rfemur 11.1337 14.3561 22.2232
rtibia 13.0715
rfoot -28.8502 -28.8967
rtoes -9.4532
lfemur -0.709203 -18.7135 -19.2746
ltibia 26.8738
lfoot -20.9415 5.60921
ltoes -15.0109
